<?xml version="1.0" encoding="UTF-8" standalone="no"?>
<!-- Uploaded to: SVG Repo, www.svgrepo.com, Transformed by: SVG Repo Mixer Tools -->
<!-- MODIFIED VERSION OF THE ABOVE -->

<svg
   fill="#000000"
   width="800"
   height="800"
   viewBox="0 0 24 24"
   role="img"
   version="1.1"
   id="svg1"
   xmlns="http://www.w3.org/2000/svg"
   xmlns:svg="http://www.w3.org/2000/svg">
  <defs
     id="defs1" />
  <g
     id="SVGRepo_iconCarrier"
     style="display:inline">
    <path
       d="m 1.742,11.982 c 0,-5.668 4.61,-10.278 10.276,-10.278 1.824,0 3.537,0.48 5.025,1.317 L 17.857,1.533 A 11.914,11.914 0 0 0 12.19,0.003 H 11.995 C 5.41,0.013 0.072,5.31 0,11.885 V 12 a 11.983,11.983 0 0 0 3.775,8.72 L 4.96,19.44 A 10.249,10.249 0 0 1 1.742,11.981 Z m 18.62,-8.577 -1.154,1.24 a 10.25,10.25 0 0 1 3.088,7.337 c 0,5.666 -4.61,10.276 -10.276,10.276 -1.783,0 -3.46,-0.456 -4.922,-1.258 L 6.244,22.522 A 11.946,11.946 0 0 0 12,23.998 c 6.626,0 12.001,-5.373 12.001,-12 A 11.977,11.977 0 0 0 20.363,3.405 Z M 1.963,11.982 a 10.03,10.03 0 0 0 3.146,7.295 l 1.18,-1.276 A 8.295,8.295 0 0 1 3.703,11.982 c 0,-4.586 3.73,-8.315 8.315,-8.315 1.483,0 2.875,0.391 4.082,1.075 L 16.935,3.216 A 9.973,9.973 0 0 0 12.018,1.927 C 6.475,1.925 1.963,6.437 1.963,11.982 Z m 18.37,0 c 0,4.586 -3.73,8.315 -8.315,8.315 A 8.273,8.273 0 0 1 8.056,19.292 l -0.852,1.516 a 10.006,10.006 0 0 0 4.814,1.229 c 5.543,0 10.055,-4.512 10.055,-10.055 0,-2.808 -1.157,-5.347 -3.017,-7.173 l -1.183,1.274 a 8.282,8.282 0 0 1 2.46,5.899 z m -1.948,0 A 6.37,6.37 0 0 1 12.02,18.346 6.329,6.329 0 0 1 9.014,17.59 l -0.848,1.507 a 8.039,8.039 0 0 0 3.854,0.977 c 4.464,0 8.095,-3.63 8.095,-8.094 a 8.07,8.07 0 0 0 -2.39,-5.738 l -1.179,1.267 a 6.356,6.356 0 0 1 1.839,4.473 z m -14.459,0 c 0,2.301 0.967,4.382 2.515,5.858 l 1.173,-1.27 a 6.344,6.344 0 0 1 -1.96,-4.588 6.37,6.37 0 0 1 6.364,-6.364 6.32,6.32 0 0 1 3.144,0.835 l 0.83,-1.517 A 8.055,8.055 0 0 0 12.018,3.888 c -4.461,0 -8.092,3.63 -8.092,8.094 z m 12.53,0 A 4.438,4.438 0 0 1 12.018,16.419 4.42,4.42 0 0 1 9.957,15.91 l -0.835,1.488 a 6.114,6.114 0 0 0 2.896,0.727 6.149,6.149 0 0 0 6.143,-6.143 6.123,6.123 0 0 0 -1.768,-4.308 l -1.162,1.25 a 4.43,4.43 0 0 1 1.224,3.058 z m -10.581,0 a 6.12,6.12 0 0 0 1.888,4.425 l 1.157,-1.25 0.014,0.014 a 4.419,4.419 0 0 1 -1.355,-3.187 4.436,4.436 0 0 1 4.437,-4.437 4.4,4.4 0 0 1 2.217,0.598 l 0.82,-1.498 A 6.097,6.097 0 0 0 12.016,5.841 C 8.632,5.836 5.875,8.594 5.875,11.982 Z m 6.68,0 a 0.538,0.538 0 0 1 -1.074,0 0.5375,0.5375 0 1 1 1.075,0 z m -3.94,0 a 3.4005,3.4005 0 1 1 6.801,0 3.4,3.4 0 0 1 -6.8,0 z m 0.149,0 a 3.256,3.256 0 0 0 3.252,3.252 3.255,3.255 0 0 0 3.254,-3.252 3.253,3.253 0 1 0 -6.506,0 z"
       id="path1"
       style="display:inline" />
    <path
       d="m 1.742,12.019001 c 0,5.668 4.61,10.278 10.276,10.278 1.824,0 3.537,-0.48 5.025,-1.317 l 0.814,1.488 a 11.914,11.914 0 0 1 -5.667,1.53 H 11.995 C 5.41,23.988001 0.072,18.691001 0,12.116001 v -0.115 A 11.983,11.983 0 0 1 3.775,3.2810007 l 1.185,1.28 A 10.249,10.249 0 0 0 1.742,12.020001 Z m 18.62,8.577 -1.154,-1.24 a 10.25,10.25 0 0 0 3.088,-7.337 c 0,-5.6660003 -4.61,-10.2760003 -10.276,-10.2760003 -1.783,0 -3.46,0.456 -4.922,1.258 l -0.854,-1.522 A 11.946,11.946 0 0 1 12,0.00300065 c 6.626,0 12.001,5.37300005 12.001,12.00000035 a 11.977,11.977 0 0 1 -3.638,8.593 z m -18.399,-8.577 A 10.03,10.03 0 0 1 5.109,4.7240007 l 1.18,1.276 A 8.295,8.295 0 0 0 3.703,12.019001 c 0,4.586 3.73,8.315 8.315,8.315 1.483,0 2.875,-0.391 4.082,-1.075 l 0.835,1.526 a 9.973,9.973 0 0 1 -4.917,1.289 c -5.543,0.002 -10.055,-4.51 -10.055,-10.055 z m 18.37,0 c 0,-4.5860003 -3.73,-8.3150003 -8.315,-8.3150003 a 8.273,8.273 0 0 0 -3.962,1.005 l -0.852,-1.516 a 10.006,10.006 0 0 1 4.814,-1.229 c 5.543,0 10.055,4.512 10.055,10.0550003 0,2.808 -1.157,5.347 -3.017,7.173 l -1.183,-1.274 a 8.282,8.282 0 0 0 2.46,-5.899 z m -1.948,0 a 6.37,6.37 0 0 0 -6.365,-6.3640003 6.329,6.329 0 0 0 -3.006,0.756 l -0.848,-1.507 a 8.039,8.039 0 0 1 3.854,-0.977 c 4.464,0 8.095,3.63 8.095,8.0940003 a 8.07,8.07 0 0 1 -2.39,5.738 l -1.179,-1.267 a 6.356,6.356 0 0 0 1.839,-4.473 z m -14.459,0 c 0,-2.3010003 0.967,-4.3820003 2.515,-5.8580003 l 1.173,1.27 a 6.344,6.344 0 0 0 -1.96,4.5880003 6.37,6.37 0 0 0 6.364,6.364 6.32,6.32 0 0 0 3.144,-0.835 l 0.83,1.517 a 8.055,8.055 0 0 1 -3.974,1.048 c -4.461,0 -8.092,-3.63 -8.092,-8.094 z m 12.53,0 a 4.438,4.438 0 0 0 -4.438,-4.4370003 4.42,4.42 0 0 0 -2.061,0.509 l -0.835,-1.488 a 6.114,6.114 0 0 1 2.896,-0.727 6.149,6.149 0 0 1 6.143,6.1430003 6.123,6.123 0 0 1 -1.768,4.308 l -1.162,-1.25 a 4.43,4.43 0 0 0 1.224,-3.058 z m -10.581,0 A 6.12,6.12 0 0 1 7.763,7.5940007 l 1.157,1.25 0.014,-0.014 a 4.419,4.419 0 0 0 -1.355,3.1870003 4.436,4.436 0 0 0 4.437,4.437 4.4,4.4 0 0 0 2.217,-0.598 l 0.82,1.498 a 6.097,6.097 0 0 1 -3.037,0.806 c -3.384,0.005 -6.141,-2.753 -6.141,-6.141 z m 6.68,0 a 0.538,0.538 0 0 0 -1.074,0 0.5375,0.5375 0 1 0 1.075,0 z m -3.94,0 a 3.4005,3.4005 0 1 0 6.801,0 3.4,3.4 0 0 0 -6.8,0 z m 0.149,0 a 3.256,3.256 0 0 1 3.252,-3.2520003 3.255,3.255 0 0 1 3.254,3.2520003 3.253,3.253 0 1 1 -6.506,0 z"
       id="path3"
       style="display:inline" />
  </g>
</svg>
